<svg width="121" height="41" viewBox="0 0 121 41" fill="none" xmlns="http://www.w3.org/2000/svg">
<path d="M47.13 18.43L47.4 21.13L47.28 20.92C47.76 19.98 48.42 19.25 49.26 18.73C50.1 18.19 51.07 17.92 52.17 17.92C52.85 17.92 53.46 18.03 54 18.25C54.56 18.47 55.02 18.78 55.38 19.18C55.74 19.58 55.97 20.08 56.07 20.68L55.92 20.77C56.42 19.89 57.08 19.2 57.9 18.7C58.74 18.18 59.63 17.92 60.57 17.92C61.79 17.92 62.76 18.27 63.48 18.97C64.22 19.67 64.6 20.57 64.62 21.67V31H61.56V22.84C61.54 22.22 61.39 21.7 61.11 21.28C60.85 20.86 60.38 20.63 59.7 20.59C58.98 20.59 58.34 20.81 57.78 21.25C57.24 21.69 56.82 22.26 56.52 22.96C56.22 23.66 56.06 24.41 56.04 25.21V31H52.95V22.84C52.93 22.22 52.78 21.7 52.5 21.28C52.22 20.86 51.73 20.63 51.03 20.59C50.31 20.59 49.68 20.81 49.14 21.25C48.6 21.69 48.18 22.27 47.88 22.99C47.6 23.69 47.46 24.43 47.46 25.21V31H44.37V18.43H47.13ZM67.8902 29.29C67.8902 28.81 68.0602 28.41 68.4002 28.09C68.7602 27.75 69.1602 27.58 69.6002 27.58C70.0002 27.58 70.3702 27.75 70.7102 28.09C71.0702 28.41 71.2502 28.81 71.2502 29.29C71.2502 29.81 71.0702 30.23 70.7102 30.55C70.3702 30.85 70.0002 31 69.6002 31C69.1602 31 68.7602 30.85 68.4002 30.55C68.0602 30.23 67.8902 29.81 67.8902 29.29ZM78.0886 31.27C77.1686 31.27 76.2786 31.11 75.4186 30.79C74.5586 30.45 73.8486 29.96 73.2886 29.32L74.6086 27.58C75.1486 28.08 75.6886 28.46 76.2286 28.72C76.7886 28.96 77.3186 29.08 77.8186 29.08C78.2186 29.08 78.5786 29.04 78.8986 28.96C79.2186 28.86 79.4786 28.7 79.6786 28.48C79.8786 28.26 79.9786 27.97 79.9786 27.61C79.9786 27.19 79.8386 26.86 79.5586 26.62C79.2786 26.38 78.9186 26.18 78.4786 26.02C78.0386 25.86 77.5686 25.71 77.0686 25.57C76.0086 25.23 75.2086 24.75 74.6686 24.13C74.1286 23.49 73.8586 22.74 73.8586 21.88C73.8586 21.22 74.0186 20.6 74.3386 20.02C74.6786 19.42 75.1886 18.93 75.8686 18.55C76.5486 18.17 77.3886 17.98 78.3886 17.98C79.3086 17.98 80.1186 18.09 80.8186 18.31C81.5186 18.51 82.1686 18.86 82.7686 19.36L81.5686 21.22C81.2086 20.86 80.7786 20.59 80.2786 20.41C79.7986 20.21 79.3586 20.1 78.9586 20.08C78.5986 20.08 78.2686 20.14 77.9686 20.26C77.6686 20.36 77.4286 20.52 77.2486 20.74C77.0686 20.94 76.9786 21.18 76.9786 21.46C76.9586 21.86 77.0886 22.19 77.3686 22.45C77.6686 22.69 78.0486 22.89 78.5086 23.05C78.9686 23.19 79.4186 23.34 79.8586 23.5C80.4786 23.68 81.0286 23.93 81.5086 24.25C81.9886 24.55 82.3686 24.92 82.6486 25.36C82.9286 25.8 83.0686 26.36 83.0686 27.04C83.0686 27.78 82.8886 28.48 82.5286 29.14C82.1686 29.78 81.6186 30.3 80.8786 30.7C80.1386 31.08 79.2086 31.27 78.0886 31.27ZM89.6398 18.43L89.9398 22.03L89.7898 21.55C90.1298 20.79 90.6098 20.14 91.2298 19.6C91.8498 19.06 92.4898 18.65 93.1498 18.37C93.8298 18.07 94.3998 17.92 94.8598 17.92L94.7098 20.98C93.7498 20.92 92.9098 21.1 92.1898 21.52C91.4898 21.94 90.9398 22.5 90.5398 23.2C90.1398 23.9 89.9398 24.65 89.9398 25.45V31H86.8798V18.43H89.6398ZM108.127 29.83C107.567 30.29 106.887 30.65 106.087 30.91C105.307 31.17 104.517 31.3 103.717 31.3C102.337 31.3 101.117 31.03 100.057 30.49C99.0168 29.95 98.2068 29.19 97.6268 28.21C97.0468 27.23 96.7568 26.06 96.7568 24.7C96.7568 23.36 97.0668 22.2 97.6868 21.22C98.3068 20.22 99.1268 19.46 100.147 18.94C101.167 18.4 102.247 18.13 103.387 18.13C104.427 18.13 105.347 18.27 106.147 18.55C106.947 18.83 107.637 19.22 108.217 19.72L106.687 21.73C106.347 21.45 105.917 21.2 105.397 20.98C104.897 20.76 104.317 20.65 103.657 20.65C102.957 20.65 102.317 20.83 101.737 21.19C101.157 21.53 100.697 22.01 100.357 22.63C100.017 23.23 99.8468 23.92 99.8468 24.7C99.8468 25.44 100.017 26.13 100.357 26.77C100.717 27.39 101.207 27.88 101.827 28.24C102.447 28.6 103.157 28.78 103.957 28.78C104.477 28.78 104.957 28.71 105.397 28.57C105.837 28.41 106.227 28.19 106.567 27.91L108.127 29.83Z" fill="#3F826D"/>
<path d="M12.2572 24.0948C13.8193 21.6572 13.0373 10.8826 16.4444 11.0747C19.7409 11.2605 16.4414 23.1099 19.5096 24.0948C23.498 25.3751 27.5556 21.2577 27.5556 13.2564C27.5556 5.25504 22.733 2 15.4805 2C5.55643 2 2 7.62234 2 19.4982C2 28.5335 5.91128 31.6689 16.4444 31.982C26.9776 32.2951 31.6978 28.5335 32 19.4982" stroke="#3F826D" stroke-width="3" stroke-linecap="round"/>
</svg>
